<?xml version="1.0" encoding="utf-8"?>
<!-- Generator: Adobe Illustrator 22.1.0, SVG Export Plug-In . SVG Version: 6.00 Build 0)  -->
<svg version="1.1" id="Capa_1" xmlns="http://www.w3.org/2000/svg" xmlns:xlink="http://www.w3.org/1999/xlink" x="0px" y="0px"
	 viewBox="0 0 1000 300" style="enable-background:new 0 0 1000 300;" xml:space="preserve">
<style type="text/css">
	.st0{fill:#4A8B2C;}
	.st1{fill:#FFFFFF;}
	.st2{fill:#1D1D1B;}
	.st3{fill:#9C9B9B;}
</style>
<g>
	<g>
		<g>
			<path class="st0" d="M228.4,150c0,63.1-51.1,114.2-114.2,114.2S0,213.1,0,150S51.1,35.8,114.2,35.8S228.4,86.9,228.4,150"/>
			<path class="st1" d="M213.7,150c0,31.5-25.6,57.1-57.1,57.1c-31.5,0-57.1-25.6-57.1-57.1s25.6-57.1,57.1-57.1
				C188.1,92.9,213.7,118.5,213.7,150"/>
			<path class="st2" d="M305.9,186.6h-14.7l-15.4-37.2l-14.1,18.7v18.5h-13.2v-73.1h13.2v38.4c1.7-2.6,2.9-4.4,3.6-5.4l24.3-33h13.3
				l-17.4,24.1L305.9,186.6z"/>
			<path class="st2" d="M329,146h16.4c4.8,0,8.3-1,10.6-3c2.3-2,3.5-4.8,3.5-8.3c0-3.2-1.1-5.8-3.4-7.8c-2.3-2-5.5-3-9.6-3H329V146z
				 M372.8,186.6h-13.9l-11.4-30.1H329v30.1h-13.2v-73.1h31.7c8.8,0,15.3,2,19.4,6c4.1,4,6.2,9.1,6.2,15.5c0,9.4-4.4,15.9-13.2,19.4
				L372.8,186.6z"/>
		</g>
		<polygon class="st2" points="433.8,186.6 386.3,186.6 386.3,113.4 433.3,113.4 433.3,124.3 399.5,124.3 399.5,144.1 426.7,144.1 
			426.7,154.7 399.5,154.7 399.5,175.2 433.8,175.2 		"/>
		<rect x="445.1" y="113.4" class="st2" width="13.2" height="73.1"/>
		<g>
			<path class="st2" d="M466.7,168.9l12.8-2.7c1.5,7.2,7.4,10.9,17.7,10.9c4.7,0,8.3-0.9,10.8-2.8c2.5-1.9,3.8-4.2,3.8-6.9
				c0-2-0.6-3.8-1.7-5.5c-1.1-1.7-3.6-3-7.3-4l-14-3.6c-4.8-1.2-8.3-2.7-10.6-4.3c-2.3-1.6-4.1-3.8-5.5-6.7c-1.4-2.9-2.1-6-2.1-9.3
				c0-6.5,2.4-11.8,7.3-15.7c4.9-3.9,11.1-5.9,18.6-5.9c6.3,0,11.9,1.4,16.8,4.1c4.9,2.8,8.1,6.6,9.5,11.7l-12.5,3.1
				c-1.9-5.5-6.4-8.3-13.5-8.3c-4.1,0-7.2,0.9-9.4,2.6c-2.2,1.7-3.2,3.9-3.2,6.5c0,4.2,3.4,7.1,10.2,8.8l12.4,3.1
				c7.5,1.9,12.6,4.7,15.2,8.4c2.6,3.7,3.9,7.8,3.9,12.2c0,7.2-2.7,12.8-8.1,17c-5.4,4.1-12.4,6.2-21,6.2c-7.2,0-13.6-1.5-19-4.6
				C472.1,180.1,468.5,175.4,466.7,168.9"/>
		</g>
		<polygon class="st3" points="596,186.6 586,186.6 564.1,146.2 547.4,167.1 547.4,186.6 538.2,186.6 538.2,113.4 547.4,113.4 
			547.4,155.8 580.5,113.4 590.3,113.4 570.5,139 		"/>
		<rect x="607.1" y="113.4" class="st3" width="9.2" height="73.1"/>
		<polygon class="st3" points="656.6,186.6 647.5,186.6 647.5,121.5 626.5,121.5 626.5,113.4 677.6,113.4 677.6,121.5 656.6,121.5 
					"/>
		<g>
			<path class="st3" d="M728.6,162l8.4,1.9c-4,16.1-13,24.2-27.1,24.2c-9.3,0-16.5-3.7-21.8-11.2c-5.3-7.5-7.9-16.7-7.9-27.6
				c0-11.3,2.7-20.3,8.2-27.1c5.5-6.8,12.9-10.2,22.1-10.2c13.7,0,22.5,7.8,26.4,23.5l-8.6,1.7c-3.1-11.6-9.1-17.5-17.8-17.5
				c-6.5,0-11.5,2.7-15,8.1c-3.6,5.4-5.3,13-5.3,22.8c0,9,1.8,16.2,5.5,21.6c3.6,5.4,8.5,8.1,14.5,8.1
				C719.4,180.3,725.6,174.2,728.6,162"/>
		</g>
		<polygon class="st3" points="800.5,186.6 791.4,186.6 791.4,151.7 757.5,151.7 757.5,186.6 748.3,186.6 748.3,113.4 757.5,113.4 
			757.5,143.7 791.4,143.7 791.4,113.4 800.5,113.4 		"/>
		<polygon class="st3" points="866.1,178.5 866.1,186.6 818.8,186.6 818.8,113.4 865.1,113.4 865.1,121.5 828,121.5 828,144.7 
			857.4,144.7 857.4,152.2 828,152.2 828,178.5 		"/>
		<g>
			<path class="st3" d="M932.7,186.6h-8.9L886,122.8l0.1,4.8c0.1,1.8,0.2,3.4,0.2,4.6v54.3h-7.4v-73.1h11.5l35.4,59.6l-0.1-5.1
				c-0.1-2-0.1-3.8-0.1-5.3v-49.2h7.2V186.6z"/>
			<path class="st3" d="M943,167.2l8.3-1.9c3.3,10,10.5,14.9,21.6,14.9c5.8,0,10.1-1.2,13.1-3.7c2.9-2.5,4.4-5.7,4.4-9.9
				c0-3.1-1.1-5.6-3.3-7.5c-2.2-1.9-4.8-3.2-7.7-3.9l-14.6-3.6c-3.8-1-6.9-2.1-9.3-3.5c-2.4-1.4-4.5-3.5-6.1-6.4
				c-1.7-2.9-2.5-6.1-2.5-9.8c0-6.1,2.3-11,6.9-14.6c4.6-3.6,10.5-5.4,17.7-5.4c13.3,0,22,6,26.2,18.1l-8.3,2.5
				c-1-4.3-3.2-7.5-6.8-9.7c-3.6-2.2-7.4-3.3-11.4-3.3c-4,0-7.6,1.1-10.7,3.2c-3.1,2.1-4.7,5.1-4.7,9c0,5.4,4,9.1,11.9,11l13.7,3.2
				c12.5,3,18.8,9.7,18.8,20.2c0,6.3-2.4,11.6-7,15.8c-4.7,4.2-11.3,6.3-19.8,6.3C957.8,188.1,947.8,181.1,943,167.2"/>
		</g>
	</g>
	<g>
		<path class="st3" d="M538.2,208.9h2.9v26.4h11.6v2.5h-14.4V208.9z"/>
		<path class="st3" d="M569.9,234.3L569.9,234.3c-1.2,2.5-4.2,3.9-6.8,3.9c-6,0-6.9-4.1-6.9-6c0-7.1,7.5-7.4,13-7.4h0.5v-1.1
			c0-3.6-1.3-5.4-4.8-5.4c-2.2,0-4.3,0.5-6.2,1.7v-2.5c1.6-0.8,4.3-1.4,6.2-1.4c5.2,0,7.4,2.4,7.4,7.9v9.3c0,1.7,0,3,0.2,4.4h-2.6
			V234.3z M569.6,227.1h-0.7c-4.5,0-9.9,0.5-9.9,5.1c0,2.8,2,3.8,4.4,3.8c6.1,0,6.2-5.3,6.2-7.6V227.1z"/>
		<path class="st3" d="M606.4,237.1c-1.8,0.7-4.2,1.2-6.1,1.2c-7,0-9.6-4.7-9.6-11c0-6.4,3.6-11,8.9-11c6,0,8.4,4.8,8.4,10.5v1.3
			h-14.4c0,4.5,2.4,8.1,6.9,8.1c1.9,0,4.7-0.8,5.9-1.6V237.1z M605.1,225.7c0-3.7-1.5-7.3-5.4-7.3c-3.8,0-6.2,3.8-6.2,7.3H605.1z"/>
		<path class="st3" d="M621.5,237.7h-3.1l-7.2-21.1h2.9l5.8,18.2h0.1l6.1-18.2h2.7L621.5,237.7z"/>
		<path class="st3" d="M642,216.1c6.8,0,9.8,5.3,9.8,11c0,5.7-3,11-9.8,11c-6.8,0-9.8-5.3-9.8-11C632.1,221.4,635.1,216.1,642,216.1
			z M642,236c4.5,0,7-3.9,7-8.8c0-4.9-2.4-8.8-7-8.8c-4.5,0-7,3.9-7,8.8C635,232.1,637.4,236,642,236z"/>
		<path class="st3" d="M657.9,206.7h2.6v31h-2.6V206.7z"/>
		<path class="st3" d="M684.8,232.8c0,1.6,0,3.3,0.2,5h-2.5V234h-0.1c-0.9,1.9-2.4,4.3-6.8,4.3c-5.2,0-7.2-3.5-7.2-8.1v-13.5h2.6
			v12.8c0,4,1.4,6.5,5,6.5c4.8,0,6.2-4.2,6.2-7.7v-11.7h2.6V232.8z"/>
		<path class="st3" d="M706.2,219.4c-1.4-0.6-3.1-1.1-4.5-1.1c-5.1,0-7.9,3.7-7.9,8.8c0,4.8,2.9,8.8,7.6,8.8c1.7,0,3.2-0.4,4.8-1
			l0.2,2.4c-1.8,0.6-3.4,0.7-5.4,0.7c-6.8,0-10.1-5.2-10.1-11c0-6.5,4.2-11,10.4-11c2.5,0,4.3,0.6,5.1,0.8L706.2,219.4z"/>
		<path class="st3" d="M714.7,211h-2.6v-3.5h2.6V211z M712.1,216.6h2.6v21.1h-2.6V216.6z"/>
		<path class="st3" d="M730.7,216.1c6.8,0,9.8,5.3,9.8,11c0,5.7-3,11-9.8,11c-6.8,0-9.8-5.3-9.8-11
			C720.9,221.4,723.9,216.1,730.7,216.1z M730.7,236c4.5,0,7-3.9,7-8.8c0-4.9-2.4-8.8-7-8.8c-4.5,0-7,3.9-7,8.8
			C723.8,232.1,726.2,236,730.7,236z M732.2,208.5h3.3l-5.2,6h-1.9L732.2,208.5z"/>
		<path class="st3" d="M746.7,221.6c0-1.6,0-3.3-0.2-5h2.5v3.8h0.1c0.9-1.9,2.4-4.3,6.8-4.3c5.2,0,7.2,3.5,7.2,8.1v13.5h-2.6v-12.8
			c0-4-1.4-6.5-5-6.5c-4.8,0-6.2,4.2-6.2,7.7v11.7h-2.6V221.6z"/>
		<path class="st3" d="M800.3,237.7h-2.6v-3.3h-0.1c-1.4,2.7-3.6,3.8-6.6,3.8c-5.8,0-8.7-4.8-8.7-11c0-6.4,2.5-11,8.7-11
			c4.1,0,6.2,3,6.6,4h0.1v-13.5h2.6V237.7z M791.4,236c4.6,0,6.2-5,6.2-8.8s-1.6-8.8-6.2-8.8c-5,0-6.2,4.7-6.2,8.8
			C785.2,231.3,786.5,236,791.4,236z"/>
		<path class="st3" d="M821.9,237.1c-1.8,0.7-4.2,1.2-6.1,1.2c-7,0-9.6-4.7-9.6-11c0-6.4,3.6-11,8.9-11c6,0,8.4,4.8,8.4,10.5v1.3
			H809c0,4.5,2.4,8.1,6.9,8.1c1.9,0,4.7-0.8,5.9-1.6V237.1z M820.6,225.7c0-3.7-1.5-7.3-5.4-7.3c-3.8,0-6.2,3.8-6.2,7.3H820.6z"/>
		<path class="st3" d="M842.3,206.7h2.6v31h-2.6V206.7z"/>
		<path class="st3" d="M864.9,234.3L864.9,234.3c-1.2,2.5-4.2,3.9-6.8,3.9c-6,0-6.9-4.1-6.9-6c0-7.1,7.5-7.4,13-7.4h0.5v-1.1
			c0-3.6-1.3-5.4-4.8-5.4c-2.2,0-4.3,0.5-6.2,1.7v-2.5c1.6-0.8,4.3-1.4,6.2-1.4c5.2,0,7.4,2.4,7.4,7.9v9.3c0,1.7,0,3,0.2,4.4h-2.6
			V234.3z M864.6,227.1h-0.7c-4.5,0-9.9,0.5-9.9,5.1c0,2.8,2,3.8,4.4,3.8c6.1,0,6.2-5.3,6.2-7.6V227.1z"/>
		<path class="st3" d="M901,219.4c-1.4-0.6-3.1-1.1-4.5-1.1c-5.1,0-7.9,3.7-7.9,8.8c0,4.8,2.9,8.8,7.6,8.8c1.7,0,3.2-0.4,4.8-1
			l0.2,2.4c-1.8,0.6-3.4,0.7-5.4,0.7c-6.8,0-10.1-5.2-10.1-11c0-6.5,4.2-11,10.4-11c2.5,0,4.3,0.6,5.1,0.8L901,219.4z"/>
		<path class="st3" d="M915.1,216.1c6.8,0,9.8,5.3,9.8,11c0,5.7-3,11-9.8,11c-6.8,0-9.8-5.3-9.8-11
			C905.3,221.4,908.3,216.1,915.1,216.1z M915.1,236c4.5,0,7-3.9,7-8.8c0-4.9-2.4-8.8-7-8.8c-4.5,0-7,3.9-7,8.8
			C908.1,232.1,910.6,236,915.1,236z"/>
		<path class="st3" d="M944.8,219.4c-1.4-0.6-3.1-1.1-4.5-1.1c-5.1,0-7.9,3.7-7.9,8.8c0,4.8,2.9,8.8,7.6,8.8c1.7,0,3.2-0.4,4.8-1
			l0.2,2.4c-1.8,0.6-3.4,0.7-5.4,0.7c-6.8,0-10.1-5.2-10.1-11c0-6.5,4.2-11,10.4-11c2.5,0,4.3,0.6,5.1,0.8L944.8,219.4z"/>
		<path class="st3" d="M953.3,211h-2.6v-3.5h2.6V211z M950.7,216.6h2.6v21.1h-2.6V216.6z"/>
		<path class="st3" d="M961.1,221.6c0-1.6,0-3.3-0.2-5h2.5v3.8h0.1c0.9-1.9,2.4-4.3,6.8-4.3c5.2,0,7.2,3.5,7.2,8.1v13.5H975v-12.8
			c0-4-1.4-6.5-5-6.5c-4.8,0-6.2,4.2-6.2,7.7v11.7h-2.6V221.6z"/>
		<path class="st3" d="M997.4,234.3L997.4,234.3c-1.2,2.5-4.2,3.9-6.8,3.9c-6,0-6.9-4.1-6.9-6c0-7.1,7.5-7.4,13-7.4h0.5v-1.1
			c0-3.6-1.3-5.4-4.8-5.4c-2.2,0-4.3,0.5-6.2,1.7v-2.5c1.6-0.8,4.3-1.4,6.2-1.4c5.2,0,7.4,2.4,7.4,7.9v9.3c0,1.7,0,3,0.2,4.4h-2.6
			V234.3z M997.2,227.1h-0.7c-4.5,0-9.9,0.5-9.9,5.1c0,2.8,2,3.8,4.4,3.8c6.1,0,6.2-5.3,6.2-7.6V227.1z"/>
	</g>
</g>
</svg>
